<svg width="140" height="48" viewBox="0 0 140 48" fill="none" xmlns="http://www.w3.org/2000/svg">
<g clip-path="url(#clip0_31_617)">
<path d="M32.9115 43.1871H25.1379C24.8685 43.1871 24.5967 43.1871 24.3297 43.1724C23.6856 43.126 23.3158 42.7378 23.3501 42.1273C23.3697 41.5558 23.7346 41.2115 24.3567 41.2115C25.9755 41.2115 27.5944 41.1969 29.2133 41.1944C30.2615 41.1944 31.3122 41.2237 32.3604 41.1944C32.6054 41.1944 32.9776 41.0015 33.0242 40.8281C33.1393 40.3812 33.3156 39.6877 33.0927 39.4606C30.7611 37.1016 28.3561 34.8208 25.9437 32.4813C23.4064 34.2836 20.8838 34.435 18.3048 32.5058C17.6534 33.1187 16.9945 33.7268 16.3455 34.3397C14.6066 36.0296 12.8482 37.6999 11.1705 39.4484C10.9256 39.7072 10.9868 40.3641 11.0823 40.7964C11.1264 40.9869 11.6089 41.1969 11.8954 41.1993C14.3225 41.231 16.7521 41.2164 19.1792 41.214C19.3286 41.214 19.4804 41.214 19.6298 41.214C20.3646 41.1798 20.9817 41.3287 21.0699 42.1908C21.136 42.8354 20.6266 43.1676 19.6641 43.1822C17.7048 43.1822 15.7651 43.1822 13.818 43.1822H11.1534C10.7248 45.3556 9.48795 46.8452 7.47966 47.6315C6.82081 47.8846 6.11646 47.9986 5.41116 47.9662C4.70587 47.9338 4.01499 47.7559 3.38225 47.4435C2.67711 47.1253 2.04487 46.6663 1.52453 46.0949C1.00419 45.5236 0.606794 44.852 0.356871 44.1216C0.106949 43.3912 0.0097987 42.6174 0.0714179 41.8481C0.133037 41.0788 0.352113 40.3302 0.715135 39.6486C2.0793 37.0967 5.73832 35.3922 9.44876 38.076C9.98512 37.5876 10.5509 37.1212 11.0823 36.6108C12.9388 34.8281 14.7683 33.0186 16.6419 31.253C17.0117 30.9038 16.9946 30.6279 16.7913 30.2469C16.588 29.866 16.6296 29.3898 15.9512 29.4093C14.005 29.4679 12.0571 29.4801 10.1076 29.4459C9.4659 29.4459 9.3361 29.8025 9.12792 30.2616C8.39318 31.9978 6.59061 33.1651 4.81009 33.1089C3.02957 33.0528 1.26864 31.7439 0.658809 30.0198C0.265468 28.9208 0.316346 27.7123 0.800684 26.65C1.28502 25.5878 2.16483 24.755 3.25395 24.328C4.34308 23.901 5.5561 23.9132 6.63638 24.362C7.71665 24.8108 8.57944 25.6611 9.0422 26.7329C9.32385 27.3678 9.66183 27.4655 10.2472 27.4655C12.28 27.4435 14.3152 27.4655 16.3014 27.4655C16.3847 27.3507 16.4239 27.3068 16.4508 27.2579C17.046 26.1444 16.6198 25.4191 15.7161 24.6254C13.6686 22.833 11.746 20.9014 9.76959 19.0284C9.6832 18.9539 9.59242 18.8845 9.49774 18.8208C8.763 19.2042 8.09684 19.656 7.35475 19.9368C6.23594 20.3521 5.01093 20.3877 3.86976 20.038C2.72859 19.6883 1.73507 18.9729 1.04333 18.0027C0.336703 17.0081 -0.0279946 15.8122 0.00379158 14.5937C0.0355777 13.3753 0.46214 12.1999 1.21966 11.2433C1.97463 10.3023 3.01736 9.63316 4.18903 9.33779C5.36071 9.04242 6.5971 9.13699 7.70988 9.60712C9.97043 10.5351 11.5256 12.9136 11.048 15.2628C10.7444 16.7475 11.1901 17.5876 12.2432 18.5131C14.107 20.1493 15.8459 21.9319 17.6313 23.6706C18.0109 24.0418 18.3024 24.159 18.7604 23.7634C19.0969 23.4633 19.5023 23.2502 19.9409 23.1431C20.9842 22.9209 21.1262 22.2958 21.1091 21.3409C21.0503 18.1444 21.0773 14.9453 21.1091 11.7488C21.1091 11.087 20.9548 10.772 20.2691 10.5571C19.0269 10.1671 17.9685 9.34179 17.2895 8.23382C16.6106 7.12585 16.357 5.81018 16.5757 4.5302C17.0656 1.80736 19.4584 -0.0754168 22.3239 0.0173793C25.1061 0.107733 27.2221 2.0247 27.543 4.76707C27.6803 5.99699 27.3941 7.23689 26.7314 8.28325C26.0687 9.3296 25.069 10.1202 23.8962 10.5253C23.235 10.7695 23.0537 11.0723 23.0611 11.7463C23.0978 15.1529 23.0905 18.5595 23.0831 21.9685C23.0831 22.4569 23.1811 22.7524 23.7321 22.9453C24.511 23.2115 25.2261 23.656 26.0588 24.0687C28.3977 21.8196 30.8003 19.5314 33.1613 17.1993C33.3352 17.0284 33.3009 16.54 33.2225 16.2347C32.6176 13.8831 33.4136 11.5949 35.3484 10.2079C36.2834 9.54646 37.3965 9.18109 38.5428 9.15931C39.689 9.13754 40.8153 9.46036 41.7749 10.0858C44.2436 11.6901 44.9588 15.3336 43.3056 17.8C42.8991 18.4125 42.3744 18.9383 41.7621 19.3466C41.1498 19.755 40.4622 20.0379 39.7392 20.1788C39.0162 20.3197 38.2724 20.3158 37.551 20.1674C36.8295 20.0189 36.1449 19.7288 35.537 19.3141C35.2676 19.1334 35.0104 18.9282 34.6724 18.6816L30.2052 22.9917C29.3847 23.7829 28.6206 24.6376 27.7365 25.3458C27.0017 25.9344 27.4916 26.4911 27.6581 27.0137C27.7267 27.2384 28.2287 27.4533 28.5398 27.4606C30.3374 27.5021 32.1376 27.4606 33.9279 27.4948C34.6087 27.5094 34.9639 27.3361 35.2627 26.6523C36.2276 24.4398 38.7331 23.4948 40.9912 24.3861C42.0634 24.8072 42.9327 25.6226 43.4194 26.6641C43.9061 27.7057 43.9732 28.8938 43.6069 29.9832C43.2928 30.8413 42.7324 31.5883 41.9955 32.1311C41.2586 32.6739 40.3779 32.9885 39.4629 33.0357C38.5574 33.0655 37.6643 32.8186 36.9035 32.328C36.1427 31.8374 35.5505 31.1266 35.2063 30.2909C34.9173 29.5339 34.5132 29.4044 33.8128 29.4166C32.0445 29.4459 30.2762 29.4166 28.5055 29.4166C28.0548 29.4166 27.6312 29.3532 27.4548 29.9685C27.3054 30.4911 27.227 30.8452 27.6997 31.297C30.0509 33.5119 32.3531 35.7781 34.6577 38.0125C39.0907 35.9685 42.25 36.6596 43.7195 39.9661C44.0293 40.6568 44.1981 41.402 44.2162 42.1584C44.2342 42.9148 44.1011 43.6672 43.8246 44.3717C43.5481 45.0763 43.1338 45.719 42.6057 46.2623C42.0776 46.8056 41.4464 47.2387 40.7487 47.5363C37.4767 48.8941 34.5279 47.2897 32.9115 43.1871Z" fill="#0A0E17"/>
<path d="M56.2836 35.9658V12.1783H64.1575C65.6385 12.141 67.1114 12.407 68.4852 12.9597C69.6224 13.4276 70.5955 14.2203 71.2821 15.2381C71.9352 16.2344 72.2617 17.4807 72.2617 18.9768C72.2617 20.7204 71.8021 22.0912 70.8829 23.0892C69.9636 24.0871 68.6966 24.7668 67.0818 25.1282L73.8096 35.9658H69.2077L63.2415 25.7705H60.1752V35.9658H56.2836ZM60.1703 22.508H64.089C65.1813 22.508 66.0393 22.3606 66.663 22.066C67.2353 21.8223 67.7011 21.3822 67.9757 20.8254C68.2358 20.2434 68.3637 19.6114 68.3505 18.9744C68.3661 18.3253 68.2382 17.6809 67.9757 17.0867C67.7024 16.5335 67.2354 16.0992 66.663 15.8657C66.0393 15.5824 65.1813 15.4408 64.089 15.4408H60.1703V22.508Z" fill="#0A0E17"/>
<path d="M81.478 36.3761C79.9126 36.4114 78.3679 36.0159 77.0132 35.2332C75.7493 34.4838 74.7171 33.4014 74.0301 32.105C73.2936 30.6958 72.9239 29.1248 72.955 27.536C72.915 25.9183 73.2848 24.3166 74.0301 22.8791C74.7182 21.5926 75.7576 20.5267 77.0279 19.8046C78.3968 19.0455 79.9438 18.6636 81.5098 18.6984C83.0236 18.661 84.5194 19.0314 85.8399 19.7704C87.0533 20.4684 88.0545 21.4811 88.7372 22.7008C89.4542 24.0005 89.8181 25.4644 89.7928 26.9475C89.7928 27.265 89.7928 27.5482 89.7756 27.7973C89.763 28.0706 89.7344 28.343 89.6899 28.6129H76.8417C76.8931 29.4402 77.1255 30.2462 77.5226 30.9744C77.8916 31.6476 78.44 32.2062 79.1072 32.5885C79.8092 32.9824 80.604 33.1822 81.4094 33.1673C82.2414 33.1933 83.0634 32.9805 83.7777 32.5543C84.444 32.1248 84.9707 31.5114 85.2937 30.7888H89.347C89.0293 31.8075 88.5142 32.7541 87.831 33.5751C87.1139 34.4316 86.2179 35.1217 85.2055 35.5971C84.0385 36.1356 82.7637 36.402 81.478 36.3761ZM76.876 25.9536H85.8399C85.8186 24.7065 85.3753 23.7208 84.51 22.9963C83.6438 22.2693 82.5414 21.882 81.4094 21.9072C80.3481 21.8983 79.3141 22.242 78.4704 22.884C77.5904 23.5417 77.0589 24.5649 76.876 25.9536Z" fill="#0A0E17"/>
<path d="M98.0071 36.3761C96.7738 36.3882 95.5508 36.1515 94.4117 35.6801C93.3601 35.2543 92.4334 34.5706 91.7177 33.6923C91.0215 32.829 90.6101 31.7722 90.5396 30.6667H94.4264C94.5487 31.4362 94.9713 32.1262 95.602 32.5861C96.2875 33.0867 97.1211 33.3446 97.9703 33.3187C98.7075 33.3456 99.4365 33.1563 100.067 32.7741C100.326 32.6199 100.539 32.4003 100.686 32.1375C100.833 31.8746 100.907 31.5779 100.902 31.2772C100.913 31.0347 100.867 30.793 100.766 30.5719C100.666 30.3507 100.514 30.1565 100.324 30.0049C99.8965 29.6775 99.4101 29.4347 98.8912 29.2894C98.323 29.1266 97.7319 28.9736 97.118 28.8303C96.1038 28.5964 95.1084 28.2879 94.1399 27.9072C93.2807 27.5871 92.5137 27.0613 91.9063 26.3761C91.3381 25.7249 91.054 24.8645 91.054 23.7949C91.0283 22.8091 91.3411 21.8442 91.9406 21.0598C92.5613 20.2782 93.3784 19.6741 94.3089 19.3089C95.3653 18.888 96.4948 18.6797 97.6323 18.696C99.497 18.696 101.048 19.1608 102.286 20.0904C103.523 21.0199 104.211 22.3793 104.348 24.1685H100.674C100.647 23.8212 100.545 23.4837 100.376 23.1788C100.207 22.8738 99.9748 22.6085 99.6945 22.4005C99.0579 21.9692 98.2983 21.755 97.5295 21.79C96.8599 21.7654 96.1958 21.9179 95.6045 22.232C95.3549 22.3735 95.1505 22.5825 95.0149 22.8348C94.8792 23.0871 94.8179 23.3725 94.8379 23.6581C94.8347 23.8763 94.8843 24.092 94.9823 24.2871C95.0803 24.4822 95.224 24.6509 95.4012 24.779C95.8317 25.1041 96.3157 25.352 96.8315 25.5116C97.4127 25.7037 97.9842 25.8665 98.5459 26C99.6013 26.2417 100.638 26.56 101.646 26.9524C102.488 27.2675 103.234 27.7941 103.812 28.4811C104.345 29.1404 104.624 30.0358 104.647 31.1673C104.674 32.1691 104.362 33.1507 103.76 33.9536C103.137 34.748 102.314 35.3638 101.375 35.7387C100.306 36.1727 99.161 36.3894 98.0071 36.3761Z" fill="#0A0E17"/>
<path d="M114.436 36.3761C112.879 36.4005 111.342 36.0264 109.971 35.2894C108.663 34.5743 107.583 33.5084 106.851 32.2125C106.063 30.7831 105.67 29.1713 105.71 27.5409C105.71 25.7045 106.107 24.1294 106.902 22.8156C107.67 21.5285 108.779 20.4767 110.106 19.7753C111.492 19.0706 113.025 18.7032 114.58 18.7032C116.136 18.7032 117.669 19.0706 119.055 19.7753C120.372 20.4779 121.469 21.5302 122.224 22.8156C123.008 24.1294 123.4 25.7045 123.4 27.5409C123.426 29.1317 123.033 30.7015 122.258 32.0928C121.51 33.4153 120.408 34.5043 119.075 35.2381C117.654 36.0134 116.055 36.4056 114.436 36.3761ZM114.47 33.0452C115.382 33.0642 116.278 32.8089 117.042 32.3126C117.792 31.8148 118.397 31.1293 118.798 30.3248C119.225 29.4274 119.447 28.4464 119.447 27.453C119.447 26.4596 119.225 25.4786 118.798 24.5812C118.401 23.8013 117.793 23.1481 117.042 22.696C116.272 22.2506 115.394 22.0258 114.504 22.0464C113.584 22.0247 112.677 22.2726 111.896 22.7595C111.157 23.2355 110.571 23.9138 110.209 24.7131C109.809 25.6049 109.611 26.5739 109.631 27.5507C109.602 28.5808 109.83 29.6021 110.294 30.5226C110.688 31.2869 111.287 31.9269 112.024 32.3708C112.762 32.8146 113.609 33.0448 114.47 33.0354V33.0452Z" fill="#0A0E17"/>
<path d="M129.023 35.9658L122.655 19.116H126.745L131.347 32.4396L135.942 19.116H139.997L133.63 35.9658H129.023Z" fill="#0A0E17"/>
</g>
<defs>
<clipPath id="clip0_31_617">
<rect width="140" height="48" fill="white"/>
</clipPath>
</defs>
</svg>
